<svg id="Layer_1" data-name="Layer 1" xmlns="http://www.w3.org/2000/svg" viewBox="0 0 49.99 50"><defs><style>.cls-1{fill:#7bc4a5;}.cls-2{fill:#fff;}</style></defs><title>Quote-Wedge</title><path class="cls-1" d="M25,50,50,6.7a50,50,0,0,0-50,0Z" transform="translate(0)"/><path class="cls-2" d="M17.16,24.27c-.06-.37-.1-.77-.12-1.17s0-.7,0-.88a13.84,13.84,0,0,1,1-5.13A15.16,15.16,0,0,1,20.34,13l4.07.93a19.76,19.76,0,0,0-1.23,3.92A20.06,20.06,0,0,0,22.71,22v.34c0,.18,0,.38,0,.6s0,.46,0,.7,0,.46.06.64Zm8.66,0c-.06-.37-.1-.77-.12-1.17s0-.7,0-.88a13.84,13.84,0,0,1,1-5.13A15.07,15.07,0,0,1,29,13l4.06.93a20.1,20.1,0,0,0-1.22,3.92A20.17,20.17,0,0,0,31.37,22v.34c0,.18,0,.38,0,.6s0,.46,0,.7,0,.46.06.64Z" transform="translate(0)"/></svg>